<svg version="1.1" id="Layer_1" xmlns="http://www.w3.org/2000/svg" xmlns:xlink="http://www.w3.org/1999/xlink"
   viewBox="60 -15 61 79" enable-background="new 60 -15 61 79" xml:space="preserve">
<path id = "p" fill="#00abff" d="M141,15.1c0,2.1-0.4,4.1-1.2,6c-0.8,1.9-1.9,3.5-3.3,4.7c-0.9,0.8-1.9,1.5-2.9,2.2c-1.1,0.7-2.2,1.2-3.5,1.7
  s-2.7,0.8-4.2,1.1s-3.2,0.4-5,0.4h-6.8v14.7H101v-45h20.2c3,0,5.6,0.2,7.8,0.7c2.2,0.5,4.1,1.2,5.9,2.3c2,1.1,3.5,2.6,4.5,4.5
  C140.5,10.3,141,12.5,141,15.1z M127.6,15.4c0-1.3-0.3-2.4-1-3.3c-0.7-0.9-1.5-1.5-2.5-1.9c-1.2-0.5-2.4-0.7-3.5-0.8
  s-2.7-0.1-4.6-0.1h-1.8v13.5h0.9c1.2,0,2.4,0,3.5,0s2-0.1,2.9-0.2c0.7-0.1,1.4-0.3,2.2-0.6c0.8-0.3,1.4-0.6,1.8-1
  c0.9-0.7,1.5-1.5,1.8-2.3C127.4,17.8,127.6,16.7,127.6,15.4z"/>
<circle id = "o1" fill="#00abff" cx="70.7" cy="23.4" r="22.5"/>
<path id = "e" fill="#00abff" d="M154.7,25.6c0.3,1.6,0.8,3.2,1.5,4.7s1.7,2.9,2.8,4c1.1,1.2,2.4,2.1,3.8,2.8s3,1.1,4.7,1.1c6.1,0,10.2-2.7,12.4-8.2h9.5
  c-0.6,2.5-1.6,4.7-3,6.7s-3.1,3.6-5.1,5c-2,1.3-4.1,2.4-6.5,3.1c-2.4,0.7-4.8,1.1-7.3,1.1c-3.6,0-6.8-0.6-9.7-1.9
  c-2.9-1.3-5.3-2.9-7.4-5.1c-2-2.1-3.6-4.6-4.7-7.4c-1.1-2.8-1.7-5.8-1.7-8.9c0-2.9,0.5-5.7,1.6-8.3s2.6-4.9,4.6-6.9s4.5-3.6,7.3-4.8
  c2.9-1.2,6.1-1.8,9.7-1.8c3.5,0,6.6,0.5,9.4,1.6s5.2,2.5,7.2,4.4s3.5,4.1,4.5,6.7c1.1,2.6,1.6,5.4,1.6,8.4v3.6L154.7,25.6
  L154.7,25.6z M166.9,6.5c-3.5,0-6.5,3-6.5,8.3c-3.3,0-5.8,3.8-5.8,3.8h24.8c0-2.3,0.3-7.8-7.5-7.8C172,9.2,170.4,6.5,166.9,6.5z"/>
<rect id = "h1" fill="#00abff" x="1" y="0.9" width="11.9" height="11.5"/>
<polygon id ="h2" fill = "#00abff" points="29.1,0.9 29.1,17.4 12.9,17.4 12.9,14.2 1,14.2 1,45.9 12.9,45.9 12.9,26 29.1,26 29.1,45.9 41,45.9 41,0.9 "/>
<path id = "line1" fill="none" stroke="black" stroke-width="2" stroke-miterlimit="10" d="M47.6,18c4.1-3.6,9.5-5.7,15.3-5.7
  c12.9,0,23.4,10.5,23.4,23.4c0,2.3-0.3,4.5-1,6.6"/>
<path id = "line2" fill="none" stroke="black" stroke-width="2" stroke-miterlimit="10" d="M78.2,47.6C64.3,41,54.7,24.1,54.7,10.3
  c0-1.4,0.1-2.7,0.2-4"/>
<path id = "line3" fill="none" stroke="black" stroke-width="2" stroke-miterlimit="10" d="M58.1,45.2c-0.4-2.3-0.6-4.6-0.6-6.9
  c0-15.8,9-29.5,22.2-36.3"/>
<path id = "line4" fill="none" stroke="black" stroke-width="2" stroke-miterlimit="10" d="M93.7,16.7c-9.4,13-23.9,21.5-40,23.2"/>
<path id = "line5" fill="none" stroke="black" stroke-width="2" stroke-miterlimit="10" d="M94.2,20.7C82.3,18.5,72.6,10.1,68.7-1"/>
    <circle id="circle1" fill="black" cx="47" cy="17" r="4">
      <animateMotion begin="0s" dur="7s" repeatCount="indefinite" path="M0,0c4.1-3.6,9.5-5.7,15.3-5.7
  c12.9,0,23.4,10.5,23.4,23.4c0,2.3-0.3,4.5-1,6.6" />
    </circle>
    <circle id="circle2" fill="black" cx="94" cy="17" r="3">
      <animateMotion begin="0s" dur="12s" repeatCount="indefinite" path="M0,0c-9.4,13-23.9,21.5-40,23.2" />
    </circle>
    <circle id="circle3" fill="black" cx="58" cy="43" r="3">
      <animateMotion begin="0s" dur="10s" repeatCount="indefinite" path="M0,0c-0.4-2.3-0.6-4.6-0.6-6.9
  c0-15.8,9-29.5,22.2-36.3,9-29.5,0-15.8" />
    </circle>
    <circle id="circle4" fill="black" cx="76" cy="45" r="3">
      <animateMotion begin="0s" dur="11s" repeatCount="indefinite" path="M0,0c-13.9-6.6-23.5-23.5-23.5-37.3
  c0-1.4,0.1-2.7,0.2-4" />
    </circle>
    <circle id="circle5" fill="black" cx="95" cy="20" r="3">
      <animateMotion begin="0s" dur="9s" repeatCount="indefinite" path="M0,0c-11.9-2.2-21.6-10.6-25.5-21.7" />
    </circle>
</svg>